<mxfile host="app.diagrams.net" modified="2024-05-19T10:21:46.472Z" agent="Mozilla/5.0 (Macintosh; Intel Mac OS X 10_15_7) AppleWebKit/605.1.15 (KHTML, like Gecko) Version/16.0 Safari/605.1.15" version="24.4.4" etag="UGI22YlrKoewjEdes9UP" type="github">
  <diagram name="Page-1" id="_ndH2DsdedaSJvMIvE42">
    <mxGraphModel>
      <root>
        <mxCell id="0" />
        <mxCell id="1" parent="0" />
      </root>
    </mxGraphModel>
  </diagram>
</mxfile>
